<?xml version="1.0" encoding="utf-8"?>
<!-- Generator: Adobe Illustrator 23.0.1, SVG Export Plug-In . SVG Version: 6.00 Build 0)  -->
<svg version="1.1" id="Ebene_1" xmlns="http://www.w3.org/2000/svg" xmlns:xlink="http://www.w3.org/1999/xlink" x="0px" y="0px"
	 width="558.7px" height="156.8px" viewBox="0 0 558.7 156.8" enable-background="new 0 0 558.7 156.8" xml:space="preserve">
<g id="Ebene_x0020_1">
	<g id="_817892064">
		<path fill-rule="evenodd" clip-rule="evenodd" fill="#1952BD" d="M532.3,117.4c-4,0-7.8-0.4-11.3-1.3c-3.6-0.9-6.5-1.9-8.8-3V98.7
			h1.4c0.8,0.6,1.7,1.3,2.7,2c1,0.7,2.5,1.5,4.3,2.3c1.6,0.7,3.3,1.4,5.3,1.9s4.1,0.8,6.4,0.8c2.4,0,4.5-0.4,6.3-1.1
			c1.8-0.7,2.7-1.9,2.7-3.5c0-1.3-0.4-2.2-1.2-2.9c-0.9-0.7-2.5-1.3-4.9-1.8c-1.3-0.3-2.9-0.7-4.9-1c-2-0.4-3.7-0.8-5.2-1.3
			c-4.3-1.3-7.5-3.3-9.6-5.9c-2.1-2.6-3.2-6-3.2-10.2c0-2.4,0.6-4.7,1.7-6.8s2.7-4.1,4.9-5.7c2.2-1.6,4.8-2.9,8-3.9
			c3.2-1,6.7-1.4,10.7-1.4c3.8,0,7.3,0.4,10.5,1.1c3.2,0.7,5.9,1.7,8.1,2.7v13.7H555c-0.6-0.5-1.5-1-2.7-1.8c-1.3-0.8-2.5-1.4-3.7-2
			c-1.4-0.6-3-1.2-4.8-1.6c-1.8-0.4-3.5-0.6-5.4-0.6c-2.4,0-4.5,0.4-6.2,1.2c-1.7,0.9-2.6,2-2.6,3.3c0,1.2,0.4,2.2,1.2,2.9
			c0.9,0.7,2.7,1.4,5.5,2.1c1.4,0.4,3.1,0.7,5,1c1.9,0.3,3.7,0.8,5.4,1.4c3.9,1.2,6.9,3.1,8.9,5.5c2,2.4,3,5.7,3,9.7
			c0,2.6-0.6,5-1.8,7.3c-1.2,2.3-2.9,4.2-5.1,5.8c-2.3,1.7-5,3-8.2,4C540.5,116.9,536.7,117.4,532.3,117.4z"/>
		<path fill-rule="evenodd" clip-rule="evenodd" fill="#1952BD" d="M503.3,115.9h-17V88.9c0-2.2-0.1-4.4-0.3-6.5
			c-0.2-2.2-0.5-3.8-1-4.8c-0.6-1.2-1.4-2.1-2.5-2.6c-1.1-0.5-2.6-0.8-4.4-0.8c-1.4,0-2.8,0.3-4.2,0.8s-2.9,1.4-4.6,2.5v38.5h-16.9
			V61.6h16.9v6c2.8-2.4,5.5-4.2,8.1-5.5c2.6-1.3,5.5-2,8.7-2c5.6,0,9.8,1.7,12.7,5.2c2.9,3.5,4.4,8.6,4.4,15.2V115.9z"/>
		<path fill-rule="evenodd" clip-rule="evenodd" fill="#1952BD" d="M423.1,110.1c-1.2,1-2.2,1.8-3.1,2.6c-0.9,0.7-2.2,1.5-3.7,2.3
			c-1.5,0.7-3,1.3-4.4,1.7c-1.4,0.4-3.4,0.6-6,0.6c-4.8,0-8.8-1.6-12-4.8c-3.2-3.2-4.8-7.3-4.8-12.2c0-4,0.8-7.3,2.4-9.8
			c1.6-2.5,3.9-4.5,6.9-5.9c3.1-1.5,6.7-2.5,11-3.1c4.3-0.6,8.8-1,13.7-1.4v-0.3c0-3-1.1-5.1-3.3-6.2c-2.2-1.1-5.5-1.7-9.9-1.7
			c-2,0-4.3,0.4-7,1.1c-2.7,0.7-5.3,1.6-7.8,2.7h-1.4V62.7c1.7-0.5,4.4-1,8.1-1.7c3.7-0.7,7.5-1,11.3-1c9.4,0,16.2,1.6,20.4,4.7
			c4.3,3.1,6.4,7.9,6.4,14.2v36.9h-16.8V110.1z"/>
		<path fill-rule="evenodd" clip-rule="evenodd" fill="#FEFEFE" d="M423.1,101.7V90.4c-2.9,0.3-5.2,0.5-7,0.7
			c-1.8,0.2-3.5,0.6-5.2,1.2c-1.5,0.5-2.6,1.3-3.5,2.4s-1.2,2.4-1.2,4.2c0,2.6,0.7,4.3,2.1,5.2c1.4,0.9,3.4,1.4,6.1,1.4
			c1.5,0,3-0.3,4.5-1C420.5,103.9,421.9,102.9,423.1,101.7z"/>
		<path fill-rule="evenodd" clip-rule="evenodd" fill="#1952BD" d="M380.7,115.9h-17V88.9c0-2.2-0.1-4.4-0.3-6.5
			c-0.2-2.2-0.5-3.8-1-4.8c-0.6-1.2-1.4-2.1-2.5-2.6c-1.1-0.5-2.6-0.8-4.4-0.8c-1.4,0-2.8,0.3-4.2,0.8s-2.9,1.4-4.5,2.5v38.5h-16.9
			V40.6h16.9v26.9c2.7-2.4,5.5-4.2,8.1-5.5c2.6-1.3,5.5-2,8.7-2c5.6,0,9.8,1.7,12.7,5.2c2.9,3.5,4.4,8.6,4.4,15.2V115.9z"/>
		<polygon fill-rule="evenodd" clip-rule="evenodd" fill="#1952BD" points="316.9,115.9 300,115.9 300,40.6 316.9,40.6 		"/>
		<path fill-rule="evenodd" clip-rule="evenodd" fill="#1952BD" d="M287.4,115.9h-17V88.9c0-2.2-0.1-4.4-0.3-6.5
			c-0.2-2.2-0.5-3.8-1-4.8c-0.6-1.2-1.4-2.1-2.5-2.6c-1.1-0.5-2.6-0.8-4.4-0.8c-1.4,0-2.8,0.3-4.2,0.8s-2.9,1.4-4.6,2.5v38.5h-16.9
			V40.6h16.9v26.9c2.8-2.4,5.5-4.2,8.1-5.5c2.6-1.3,5.5-2,8.7-2c5.6,0,9.8,1.7,12.7,5.2c2.9,3.5,4.4,8.6,4.4,15.2V115.9z"/>
		<polygon fill-rule="evenodd" clip-rule="evenodd" fill="#1952BD" points="193.4,53.9 179.5,53.9 179.5,40.6 193.4,40.6 		"/>
		<polygon fill-rule="evenodd" clip-rule="evenodd" fill="#1952BD" points="216.6,53.9 202.7,53.9 202.7,40.6 216.6,40.6 		"/>
		<path fill-rule="evenodd" clip-rule="evenodd" fill="#1952BD" d="M223.6,115.9h-16.9v-6c-2.9,2.4-5.6,4.3-8.1,5.6
			c-2.4,1.3-5.4,1.9-8.8,1.9c-5.4,0-9.6-1.7-12.6-5.1c-3-3.4-4.5-8.5-4.5-15.3V61.6h17v26.9c0,2.8,0.1,5.1,0.2,6.9
			c0.2,1.8,0.5,3.3,1,4.5c0.5,1.1,1.3,2,2.4,2.6c1.1,0.6,2.6,0.9,4.5,0.9c1.2,0,2.6-0.3,4.2-0.9c1.6-0.6,3.1-1.4,4.5-2.4V61.6h16.9
			V115.9z"/>
		<path fill-rule="evenodd" clip-rule="evenodd" fill="#5B5B5B" d="M301.1,151.7V126h17.4v4.9h-11v4.5h10.1v4.9h-10.1v6.5h11v4.9
			H301.1z M328.6,151.7h-6v-26.9h6V151.7z M343.2,152.2c-3.7,0-6.5-0.9-8.4-2.6c-2-1.7-2.9-4.2-2.9-7.5c0-3.1,0.9-5.7,2.7-7.6
			c1.8-1.9,4.4-2.8,7.6-2.8c3,0,5.2,0.8,6.7,2.4c1.5,1.6,2.2,3.9,2.2,6.9v2.2h-13.3c0.1,0.9,0.3,1.6,0.6,2.3
			c0.3,0.6,0.8,1.1,1.3,1.4c0.5,0.3,1.1,0.6,1.8,0.8c0.7,0.1,1.4,0.2,2.3,0.2c0.7,0,1.4-0.1,2.1-0.2c0.7-0.2,1.3-0.4,1.9-0.6
			c0.5-0.2,1-0.5,1.4-0.7c0.4-0.3,0.8-0.5,1-0.7h0.6v5c-0.5,0.2-0.9,0.4-1.3,0.6c-0.4,0.1-1,0.3-1.7,0.5c-0.7,0.2-1.3,0.3-2,0.4
			C345,152.2,344.2,152.2,343.2,152.2z M345.1,139.5c0-1.3-0.3-2.3-0.9-2.9c-0.6-0.7-1.4-1-2.6-1c-1.2,0-2.1,0.3-2.8,1
			c-0.7,0.7-1,1.7-1.1,2.9H345.1z M373.6,151.7h-7.2l-5.2-8.4l-0.9,1.2v7.2h-6v-26.9h6v15.1l5.7-7.6h7.1l-6.8,8.4L373.6,151.7z
			 M383,152.1c-2.5,0-4.3-0.5-5.4-1.5c-1.1-1-1.7-2.7-1.7-5v-9.1h-2.3v-4.2h2.3v-5.5h6.1v5.5h5.8v4.2H382v6.9c0,0.7,0,1.3,0,1.8
			c0,0.5,0.1,1,0.3,1.4c0.2,0.4,0.5,0.7,0.9,1c0.4,0.3,1,0.4,1.8,0.4c0.3,0,0.8-0.1,1.3-0.2c0.5-0.1,0.9-0.3,1.1-0.4h0.5v4.3
			c-0.7,0.2-1.4,0.3-2.1,0.4C384.9,152.1,384,152.1,383,152.1z M403.3,138h-0.5c-0.2-0.1-0.6-0.1-1-0.2c-0.5,0-0.9-0.1-1.4-0.1
			c-0.7,0-1.3,0.1-2,0.3c-0.7,0.2-1.4,0.4-2,0.7v13h-6.1v-19.4h6.1v2.8c0.3-0.3,0.7-0.6,1.1-0.9c0.5-0.4,0.9-0.7,1.3-0.9
			c0.5-0.3,1-0.5,1.5-0.7c0.6-0.2,1.1-0.3,1.6-0.3c0.2,0,0.4,0,0.7,0c0.2,0,0.5,0,0.7,0.1V138z M424.2,142c0,3.2-0.9,5.7-2.6,7.5
			c-1.7,1.8-4.2,2.7-7.4,2.7c-3.2,0-5.6-0.9-7.4-2.7c-1.8-1.8-2.6-4.4-2.6-7.5c0-3.2,0.9-5.8,2.6-7.6c1.8-1.8,4.2-2.7,7.4-2.7
			s5.6,0.9,7.4,2.7C423.4,136.3,424.2,138.8,424.2,142z M418,142.1c0-1.2-0.1-2.1-0.3-2.9c-0.2-0.8-0.5-1.4-0.8-1.8
			c-0.4-0.5-0.8-0.8-1.2-1c-0.5-0.2-1-0.3-1.5-0.3c-0.5,0-1,0.1-1.5,0.3c-0.4,0.1-0.8,0.5-1.2,0.9c-0.4,0.5-0.6,1.1-0.9,1.9
			c-0.2,0.8-0.3,1.8-0.3,2.9s0.1,2.2,0.3,2.9c0.2,0.7,0.5,1.3,0.8,1.8c0.3,0.4,0.7,0.8,1.2,1c0.5,0.2,1,0.3,1.6,0.3
			c0.5,0,1-0.1,1.5-0.3c0.5-0.2,0.9-0.5,1.2-0.9c0.4-0.5,0.7-1.1,0.8-1.8C417.9,144.3,418,143.3,418,142.1z M434.9,152.1
			c-2.5,0-4.3-0.5-5.4-1.5c-1.1-1-1.7-2.7-1.7-5v-9.1h-2.3v-4.2h2.3v-5.5h6v5.5h5.8v4.2h-5.8v6.9c0,0.7,0,1.3,0,1.8
			c0,0.5,0.1,1,0.3,1.4c0.2,0.4,0.5,0.7,0.9,1c0.4,0.3,1,0.4,1.8,0.4c0.3,0,0.7-0.1,1.2-0.2c0.5-0.1,0.9-0.3,1.1-0.4h0.5v4.3
			c-0.7,0.2-1.4,0.3-2.1,0.4C436.8,152.1,435.9,152.1,434.9,152.1z M452.1,152.2c-3.7,0-6.5-0.9-8.4-2.6c-2-1.7-2.9-4.2-2.9-7.5
			c0-3.1,0.9-5.7,2.7-7.6c1.8-1.9,4.4-2.8,7.6-2.8c3,0,5.2,0.8,6.7,2.4c1.5,1.6,2.2,3.9,2.2,6.9v2.2h-13.3c0.1,0.9,0.3,1.6,0.6,2.3
			c0.3,0.6,0.7,1.1,1.3,1.4c0.5,0.3,1.1,0.6,1.8,0.8c0.7,0.1,1.4,0.2,2.2,0.2c0.7,0,1.4-0.1,2.1-0.2c0.7-0.2,1.3-0.4,1.8-0.6
			c0.5-0.2,1-0.5,1.4-0.7c0.4-0.3,0.8-0.5,1-0.7h0.7v5c-0.5,0.2-1,0.4-1.4,0.6c-0.4,0.1-1,0.3-1.7,0.5c-0.7,0.2-1.3,0.3-2,0.4
			C453.9,152.2,453.1,152.2,452.1,152.2z M454.1,139.5c-0.1-1.3-0.3-2.3-0.9-2.9c-0.5-0.7-1.4-1-2.6-1c-1.2,0-2.1,0.3-2.8,1
			c-0.7,0.7-1,1.7-1.1,2.9H454.1z M472.7,152.2c-1.6,0-3.1-0.2-4.4-0.6c-1.4-0.4-2.5-1-3.5-1.9c-1-0.9-1.7-1.9-2.3-3.2
			c-0.5-1.3-0.8-2.8-0.8-4.5c0-1.8,0.3-3.4,0.9-4.7s1.4-2.4,2.4-3.2c1-0.8,2.1-1.4,3.4-1.8c1.3-0.4,2.7-0.6,4.1-0.6
			c1.1,0,2.2,0.1,3.2,0.4c1.1,0.3,2.2,0.7,3.2,1.2v5.2h-0.8c-0.2-0.2-0.5-0.5-0.9-0.8c-0.3-0.3-0.7-0.5-1.1-0.8
			c-0.5-0.2-0.9-0.4-1.5-0.6c-0.5-0.2-1.2-0.3-1.8-0.3c-1.6,0-2.7,0.5-3.6,1.6c-0.8,1.1-1.2,2.5-1.2,4.3c0,2,0.5,3.4,1.3,4.4
			c0.9,1,2.1,1.4,3.6,1.4c0.7,0,1.4-0.1,2-0.3c0.6-0.2,1.1-0.4,1.5-0.6c0.4-0.2,0.7-0.5,1-0.7c0.3-0.3,0.5-0.5,0.7-0.7h0.8v5.2
			c-0.3,0.1-0.7,0.3-1.2,0.5c-0.5,0.2-0.9,0.4-1.4,0.5c-0.6,0.2-1.2,0.3-1.7,0.4C474.2,152.2,473.5,152.2,472.7,152.2z M500,151.7
			h-6.1v-9.6c0-0.8,0-1.6-0.1-2.3c-0.1-0.8-0.2-1.4-0.4-1.7c-0.2-0.4-0.5-0.7-0.9-0.9s-0.9-0.3-1.6-0.3c-0.5,0-1,0.1-1.5,0.3
			c-0.5,0.2-1,0.5-1.6,0.9v13.7h-6v-26.9h6v9.6c1-0.9,2-1.5,2.9-2c0.9-0.5,2-0.7,3.1-0.7c2,0,3.5,0.6,4.5,1.9c1,1.2,1.6,3,1.6,5.4
			V151.7z M522.6,151.7h-6.1v-9.6c0-0.8,0-1.6-0.1-2.3c-0.1-0.8-0.2-1.4-0.4-1.7c-0.2-0.4-0.5-0.7-0.9-0.9c-0.4-0.2-0.9-0.3-1.6-0.3
			c-0.5,0-1,0.1-1.5,0.3c-0.5,0.2-1,0.5-1.6,0.9v13.7h-6v-19.4h6v2.2c1-0.9,2-1.5,2.9-2c0.9-0.5,2-0.7,3.1-0.7c2,0,3.5,0.6,4.5,1.9
			c1,1.2,1.6,3,1.6,5.4V151.7z M533.2,151.7h-6.1v-19.4h6.1V151.7z M533.3,129.6h-6.4v-4.7h6.4V129.6z M557.2,151.7H550l-5.2-8.4
			l-0.9,1.2v7.2h-6v-26.9h6v15.1l5.7-7.6h7.1l-6.8,8.4L557.2,151.7z"/>
		<polygon fill-rule="evenodd" clip-rule="evenodd" fill="#1952BD" points="0,156.8 86.7,0.2 87,0 106.1,0 105.3,76.7 138.3,0 
			158.2,0 158.2,115.9 137.6,115.7 137.9,37.8 105.4,115.9 87.9,115.9 88,36.3 31.2,156.8 		"/>
	</g>
</g>
</svg>
